<?xml version="1.0" encoding="UTF-8"?>
<svg xmlns="http://www.w3.org/2000/svg" xmlns:xlink="http://www.w3.org/1999/xlink" width="396pt" height="161pt" viewBox="0 0 396 161" version="1.1">
<g id="surface1">
<path style=" stroke:none;fill-rule:nonzero;fill:rgb(0%,0%,0%);fill-opacity:1;" d="M 178.152344 1.007812 C 178.257812 1.007812 178.359375 0.800781 178.671875 0.59375 C 178.878906 0.382812 179.191406 0.175781 179.5 0.175781 C 179.605469 0.175781 179.8125 0.175781 179.914062 0.382812 C 181.46875 1.941406 182.089844 3.1875 182.402344 5.160156 C 182.507812 6.097656 184.269531 9.9375 183.851562 10.871094 L 185.097656 13.363281 L 183.957031 13.054688 C 183.957031 13.054688 184.0625 13.675781 185.097656 15.546875 C 184.371094 15.339844 183.644531 15.234375 183.644531 15.234375 L 185.925781 17.832031 C 186.03125 18.039062 185.925781 18.140625 185.617188 18.140625 C 185.199219 18.140625 184.476562 17.933594 184.0625 17.621094 C 184.785156 18.039062 184.785156 18.867188 185.925781 19.699219 L 185.304688 20.21875 C 186.753906 22.296875 188.101562 24.582031 188.621094 26.863281 C 190.484375 24.582031 192.144531 21.984375 193.386719 18.660156 C 198.570312 9.9375 203.027344 7.34375 212.976562 7.34375 C 219.917969 7.34375 229.453125 8.589844 243.859375 9.9375 C 245.101562 10.042969 246.347656 10.144531 247.589844 10.144531 C 253.394531 10.144531 258.992188 9.003906 264.792969 7.550781 C 275.78125 4.851562 277.4375 1.421875 278.265625 1.421875 C 278.265625 1.421875 278.371094 1.421875 278.371094 1.421875 C 278.371094 1.421875 279.820312 3.8125 276.296875 6.613281 C 275.882812 8.171875 273.707031 11.082031 260.960938 12.742188 C 260.960938 12.742188 261.582031 13.261719 263.65625 13.261719 C 264.277344 13.261719 265.105469 13.261719 266.140625 13.054688 C 270.183594 12.535156 273.398438 11.601562 273.398438 11.601562 C 273.398438 11.601562 274.121094 11.390625 274.847656 11.390625 C 275.160156 11.390625 275.574219 11.496094 275.78125 11.601562 C 275.78125 11.601562 275.988281 12.847656 271.738281 15.234375 C 270.910156 17.3125 266.554688 17.207031 266.867188 17.621094 C 266.867188 17.621094 269.769531 18.453125 269.769531 19.285156 C 269.769531 20.113281 265.832031 22.917969 260.546875 22.917969 C 260.441406 22.917969 260.339844 22.917969 260.234375 22.917969 L 256.917969 22.710938 C 256.917969 22.710938 263.445312 24.269531 264.070312 25.722656 C 264.070312 25.722656 263.34375 26.863281 260.339844 26.96875 C 260.128906 26.96875 259.921875 26.96875 259.714844 26.96875 C 255.882812 26.96875 252.253906 25.722656 244.273438 24.996094 L 255.15625 29.980469 C 255.050781 30.707031 252.773438 30.8125 251.425781 30.8125 C 250.804688 30.8125 250.390625 30.8125 250.390625 30.8125 L 249.457031 30.914062 C 249.457031 30.914062 251.632812 32.265625 251.320312 32.785156 C 251.011719 33.304688 245.933594 34.445312 243.859375 34.445312 C 243.757812 34.445312 243.757812 34.445312 243.652344 34.445312 C 243.652344 34.445312 245.933594 37.457031 245.207031 37.457031 C 245.101562 37.457031 245 37.457031 244.894531 37.351562 C 243.859375 36.832031 238.574219 34.964844 238.054688 34.964844 C 237.953125 34.964844 238.054688 34.964844 238.160156 35.066406 C 240.75 36.523438 241.164062 37.25 242.511719 38.597656 C 243.132812 39.222656 244.273438 42.027344 243.445312 42.027344 C 241.269531 41.921875 239.09375 40.363281 239.09375 40.363281 C 239.09375 40.363281 240.957031 43.792969 240.023438 43.894531 C 238.988281 43.894531 236.191406 40.882812 235.363281 40.15625 C 233.390625 38.078125 232.460938 37.351562 232.148438 37.351562 C 231.421875 37.351562 234.84375 42.441406 235.464844 43.582031 C 236.191406 45.246094 236.191406 46.179688 236.398438 46.90625 C 236.398438 46.90625 236.5 47.425781 235.671875 47.425781 C 234.84375 47.425781 231.527344 45.867188 231.527344 45.867188 C 231.527344 45.867188 233.289062 48.257812 232.5625 48.671875 C 232.460938 48.777344 232.148438 48.777344 231.734375 48.777344 C 230.28125 48.777344 227.277344 48.152344 226.863281 47.839844 C 228.105469 49.917969 228.105469 51.683594 228.105469 51.683594 C 228.105469 51.683594 225.203125 50.125 224.6875 50.125 C 224.582031 50.125 224.582031 50.125 224.6875 50.332031 C 225.308594 51.164062 225.828125 52.617188 225.101562 53.242188 C 221.785156 52.722656 218.054688 48.566406 217.742188 48.566406 C 217.742188 48.566406 217.742188 48.671875 217.742188 48.777344 C 219.503906 52.203125 223.960938 55.628906 223.753906 55.835938 C 223.339844 56.148438 222.820312 56.355469 222.199219 56.355469 C 221.058594 56.355469 219.710938 55.941406 218.988281 55.628906 L 219.402344 57.082031 C 218.988281 57.1875 218.570312 57.289062 218.261719 57.289062 C 217.121094 57.289062 216.1875 56.875 214.738281 56.460938 C 215.253906 57.289062 217.847656 58.535156 218.261719 59.367188 C 217.742188 59.679688 217.226562 59.78125 216.707031 59.78125 C 216.1875 59.78125 215.671875 59.679688 214.839844 59.472656 C 214.839844 59.472656 213.390625 59.367188 212.457031 58.953125 C 212.355469 58.953125 214.53125 60.40625 215.046875 61.757812 C 214.53125 61.964844 213.699219 62.171875 212.769531 62.171875 C 211.9375 62.171875 210.800781 61.964844 209.660156 61.339844 C 209.453125 61.339844 208.726562 61.859375 209.347656 62.898438 C 210.59375 64.871094 214.53125 66.53125 214.21875 66.742188 C 213.910156 66.949219 213.597656 66.949219 213.285156 66.949219 C 212.976562 66.949219 212.769531 66.84375 212.769531 66.84375 C 212.769531 66.84375 215.980469 70.0625 217.226562 71.207031 L 216.5 71.515625 C 217.226562 72.347656 219.609375 77.019531 221.371094 78.164062 C 221.164062 78.164062 221.058594 78.164062 220.851562 78.164062 C 220.542969 78.164062 220.4375 78.164062 220.125 77.957031 C 221.371094 79.511719 222.71875 82.941406 223.027344 85.015625 C 224.375 88.238281 223.339844 93.84375 222.304688 97.0625 C 221.785156 98.828125 221.058594 100.488281 220.023438 102.046875 L 219.917969 102.253906 C 223.027344 100.179688 230.179688 94.15625 228.210938 84.707031 C 227.796875 82.523438 228.105469 83.875 227.175781 80.136719 C 225.515625 72.246094 227.484375 66.015625 230.386719 64.25 C 230.492188 64.144531 230.386719 63.9375 232.148438 62.792969 C 233.496094 61.964844 236.085938 60.300781 237.226562 59.992188 C 237.640625 59.886719 238.054688 59.886719 238.574219 59.886719 C 239.714844 59.886719 241.0625 60.09375 242.304688 60.300781 L 244.792969 61.238281 C 245.519531 61.445312 245.828125 61.757812 246.554688 62.898438 L 246.65625 63.105469 L 247.382812 63.523438 L 248.835938 64.351562 L 249.765625 64.664062 L 250.390625 64.871094 L 249.144531 66.015625 C 250.179688 66.636719 251.320312 66.636719 252.359375 67.988281 C 251.734375 68.402344 251.21875 68.507812 250.804688 68.507812 C 250.699219 68.507812 250.597656 68.507812 250.492188 68.507812 L 250.078125 68.816406 L 248.9375 68.609375 L 248.9375 68.714844 L 248.628906 69.441406 L 247.902344 69.542969 C 247.382812 69.335938 246.65625 68.507812 246.035156 68.507812 L 246.347656 69.855469 C 246.242188 69.855469 246.242188 69.855469 246.140625 69.855469 C 245.519531 69.855469 244.894531 69.335938 244.378906 68.921875 L 243.964844 69.753906 C 243.757812 69.855469 243.546875 69.855469 243.238281 69.855469 C 242.824219 69.855469 242.410156 69.753906 242.097656 69.753906 C 240.648438 69.753906 239.609375 69.441406 238.261719 68.507812 C 237.640625 68.089844 237.125 67.261719 236.292969 66.949219 C 235.464844 66.53125 234.84375 67.050781 234.117188 66.222656 C 232.667969 67.050781 232.046875 68.195312 231.628906 68.714844 C 230.90625 70.480469 230.179688 72.761719 232.769531 80.65625 C 234.015625 84.394531 234.222656 86.367188 234.117188 88.027344 C 234.015625 91.457031 233.289062 94.675781 231.214844 99.453125 C 230.28125 102.359375 226.964844 105.578125 224.375 107.238281 C 223.960938 107.964844 221.992188 108.796875 221.371094 109.210938 C 219.402344 110.5625 217.015625 110.667969 214.117188 111.082031 C 212.25 111.394531 210.488281 111.496094 208.933594 111.496094 C 205.515625 111.496094 202.921875 111.082031 202.300781 110.976562 C 202.300781 110.976562 198.464844 112.433594 196.289062 112.433594 C 195.980469 112.433594 195.773438 112.433594 195.460938 112.328125 C 194.941406 112.222656 193.285156 112.121094 191.417969 112.121094 C 190.175781 112.121094 188.828125 112.121094 187.6875 112.121094 C 184.578125 112.222656 182.402344 112.742188 179.8125 112.742188 C 178.878906 112.742188 177.84375 112.640625 176.597656 112.433594 L 176.082031 112.847656 L 175.667969 111.914062 C 175.355469 111.601562 175.148438 111.1875 174.320312 110.976562 L 174.113281 110.875 L 173.488281 111.703125 L 173.074219 110.042969 L 172.039062 109.210938 L 170.898438 110.25 L 171.003906 108.070312 C 171.105469 107.136719 171.519531 106.71875 171.933594 106.511719 C 173.074219 104.226562 173.902344 103.398438 177.324219 103.398438 C 178.359375 103.398438 179.5 103.5 181.054688 103.605469 C 181.574219 103.5 182.816406 103.398438 184.164062 103.398438 C 186.339844 103.398438 189.140625 103.605469 190.484375 103.917969 C 190.070312 103.292969 184.0625 101.839844 181.367188 98.515625 C 173.800781 89.171875 178.464844 83.667969 178.359375 83.667969 L 175.5625 83.667969 C 175.5625 83.667969 175.5625 83.667969 175.457031 83.667969 C 174.941406 83.667969 173.59375 83.355469 172.765625 82.941406 C 172.558594 82.941406 172.039062 83.042969 171.519531 83.042969 C 171.105469 83.042969 170.585938 82.941406 170.171875 82.734375 C 169.757812 82.523438 169.035156 82.003906 168.308594 81.382812 C 167.789062 83.667969 167.996094 83.980469 168.101562 83.980469 C 168.101562 83.980469 168.203125 83.980469 168.203125 83.980469 C 168.617188 84.808594 168.203125 85.535156 168.308594 86.261719 C 168.929688 88.445312 168.824219 88.964844 168.515625 88.964844 C 168.203125 88.964844 167.582031 88.132812 167.582031 88.132812 C 167.582031 88.132812 168.824219 90.730469 168.515625 92.183594 C 167.894531 92.078125 167.167969 91.558594 167.167969 91.558594 C 167.167969 91.558594 168.203125 94.363281 168.203125 97.0625 C 168.203125 97.996094 168.203125 98.308594 168.101562 98.308594 C 167.894531 98.308594 167.582031 97.269531 167.0625 96.960938 L 166.441406 97.0625 L 166.441406 97.269531 C 166.441406 97.6875 166.546875 98.621094 167.0625 100.28125 C 167.167969 100.699219 167.167969 100.800781 167.0625 100.800781 C 166.855469 100.800781 166.027344 99.761719 165.613281 99.660156 C 165.300781 99.660156 165.09375 101.527344 164.371094 102.566406 L 165.507812 102.878906 L 165.09375 103.605469 C 165.09375 103.605469 166.753906 104.851562 166.546875 108.695312 C 166.855469 109.109375 166.441406 110.667969 166.027344 111.289062 C 165.71875 111.808594 164.265625 113.160156 163.746094 113.160156 C 163.746094 113.160156 163.644531 113.160156 163.644531 113.160156 C 163.4375 113.054688 163.851562 112.015625 163.953125 111.289062 C 164.058594 110.667969 163.851562 110.25 164.164062 109.730469 C 164.371094 108.277344 162.816406 107.757812 161.363281 107.03125 C 161.15625 106.929688 160.949219 106.824219 160.742188 106.824219 C 159.394531 106.824219 158.152344 108.589844 157.320312 109.316406 C 155.25 110.976562 155.664062 111.289062 154.003906 112.742188 C 152.242188 114.09375 150.378906 113.574219 149.652344 113.988281 C 149.03125 114.300781 148.71875 115.753906 148.410156 115.753906 L 148.097656 114.714844 C 148.097656 114.199219 148.511719 112.121094 149.238281 111.601562 C 150.171875 109.003906 151.726562 109.003906 152.554688 108.796875 L 154.003906 107.550781 C 154.003906 107.550781 153.902344 107.550781 153.902344 107.550781 C 153.074219 107.550781 150.6875 107.863281 149.859375 108.175781 C 149.550781 108.277344 149.34375 108.277344 149.03125 108.277344 C 148.097656 108.277344 147.164062 107.863281 146.957031 107.65625 C 146.75 107.449219 146.855469 107.34375 146.542969 107.34375 C 146.441406 107.34375 146.234375 107.34375 146.027344 107.449219 C 144.679688 107.757812 144.160156 109.421875 143.953125 109.421875 C 143.746094 109.421875 143.746094 109.210938 143.640625 108.484375 C 143.640625 107.863281 144.574219 105.890625 145.300781 105.371094 C 146.027344 104.851562 146.648438 104.746094 146.648438 104.746094 C 146.648438 104.746094 147.476562 104.226562 148.097656 104.125 C 148.410156 104.019531 148.617188 104.019531 149.03125 104.019531 C 149.445312 104.019531 149.964844 104.125 150.898438 104.226562 C 151.105469 104.332031 151.3125 104.332031 151.519531 104.332031 C 152.761719 104.332031 153.796875 102.878906 155.664062 102.253906 L 155.664062 101.007812 L 154.316406 101.21875 C 154.316406 101.21875 154.214844 101.21875 154.109375 101.21875 L 154.316406 101.21875 C 154.730469 101.007812 154.730469 100.28125 154.835938 99.761719 C 154.730469 98.207031 154.9375 97.0625 154.9375 97.0625 C 154.9375 97.0625 154.730469 97.582031 154.003906 97.582031 C 153.796875 97.269531 153.796875 95.816406 154.109375 94.675781 C 154.214844 94.257812 153.796875 93.84375 153.382812 93.84375 C 153.28125 93.84375 153.074219 93.84375 152.96875 93.949219 C 153.28125 93.011719 153.488281 92.597656 153.589844 91.351562 C 153.589844 91.039062 153.695312 90.832031 152.96875 90.832031 C 152.761719 90.832031 152.453125 90.832031 152.035156 90.832031 C 152.761719 89.378906 152.453125 87.820312 152.453125 86.472656 L 151.414062 86.886719 C 151.414062 86.886719 151.3125 86.992188 151.3125 86.992188 C 151 86.992188 151.3125 85.640625 151.519531 84.914062 L 151.726562 83.875 C 151.726562 83.875 150.898438 81.902344 151.3125 80.96875 L 150.273438 80.550781 L 150.792969 78.578125 C 151.414062 75.984375 151 74.527344 151.207031 72.660156 L 150.273438 72.972656 C 150.171875 72.347656 151.3125 68.921875 151.105469 68.921875 C 150.480469 69.648438 149.652344 69.753906 149.550781 69.753906 C 148.925781 68.714844 150.480469 65.390625 149.03125 65.390625 C 148.925781 65.390625 149.757812 62.898438 149.445312 61.964844 L 148.410156 62.691406 C 148.203125 62.066406 148.304688 61.339844 148.511719 60.300781 L 147.789062 60.40625 C 147.582031 59.992188 147.683594 59.574219 148.097656 58.746094 C 147.582031 58.953125 147.269531 59.054688 146.957031 59.054688 C 146.957031 59.054688 146.957031 59.054688 146.855469 59.054688 C 146.75 58.746094 146.648438 58.535156 146.855469 57.707031 C 147.269531 55.941406 148.203125 54.488281 148.203125 54.488281 C 148.203125 54.488281 146.957031 55.214844 146.128906 55.214844 C 145.921875 55.214844 145.714844 55.214844 145.714844 55.007812 C 147.0625 54.070312 147.789062 52.515625 148.71875 50.644531 C 148.71875 50.644531 146.441406 49.191406 146.855469 48.359375 C 147.371094 47.320312 147.476562 46.492188 149.445312 44.207031 C 149.34375 44.101562 148.617188 43.273438 147.890625 43.273438 C 147.789062 43.273438 147.789062 43.273438 147.683594 43.273438 C 148.410156 41.195312 150.171875 40.363281 151.621094 39.324219 C 152.140625 39.015625 151.621094 38.808594 150.792969 38.808594 C 150.171875 38.808594 149.445312 38.910156 148.824219 39.015625 C 148.511719 39.015625 149.136719 37.5625 151.519531 36.003906 C 153.074219 34.964844 153.796875 34.964844 154.003906 34.964844 C 154.003906 34.964844 153.796875 34.132812 152.761719 34.132812 C 151.207031 34.03125 155.664062 32.265625 155.664062 32.265625 C 157.425781 31.019531 160.636719 27.074219 161.15625 25.722656 C 161.363281 25.097656 161.570312 24.890625 161.777344 24.890625 C 161.777344 24.890625 161.882812 24.890625 161.882812 24.890625 C 161.984375 23.125 161.363281 22.605469 160.847656 22.296875 C 159.707031 21.878906 158.046875 21.152344 154.730469 17.519531 C 153.28125 15.855469 151.726562 15.648438 150.898438 15.648438 C 150.480469 15.648438 150.171875 15.753906 150.171875 15.753906 C 149.757812 15.855469 149.03125 15.855469 148.203125 15.855469 C 147.582031 15.855469 146.855469 15.855469 146.128906 15.648438 C 145.820312 15.546875 145.507812 15.546875 145.195312 15.546875 C 143.953125 15.546875 143.433594 16.066406 143.433594 16.066406 C 142.917969 16.585938 142.8125 17 143.019531 17.621094 L 142.710938 17.832031 L 142.191406 17.101562 C 141.050781 13.882812 142.710938 11.496094 142.710938 11.496094 C 145.507812 7.757812 150.378906 7.652344 150.378906 7.652344 C 151.105469 5.785156 153.796875 4.746094 153.796875 4.746094 C 155.976562 3.914062 158.667969 3.5 161.363281 3.5 C 164.886719 3.5 168.308594 4.019531 170.898438 4.746094 C 171.417969 4.640625 171.105469 4.746094 172.660156 3.5 C 172.660156 4.019531 172.867188 4.121094 172.972656 4.121094 C 172.972656 4.121094 173.800781 3.707031 174.113281 2.980469 C 174.320312 3.292969 174.320312 3.394531 174.421875 3.394531 C 174.527344 3.394531 174.527344 3.394531 174.734375 3.292969 L 175.042969 2.980469 L 175.875 1.734375 C 176.082031 1.734375 176.183594 1.734375 176.289062 1.734375 C 176.597656 2.148438 177.117188 2.046875 178.152344 1.007812 "/>
<path style=" stroke:none;fill-rule:nonzero;fill:rgb(0%,0%,0%);fill-opacity:1;" d="M 154.316406 101.320312 C 154.421875 101.320312 154.421875 101.320312 154.523438 101.320312 Z M 146.75 53.035156 Z M 178.671875 0.59375 C 178.464844 0.800781 178.257812 1.007812 178.152344 1.007812 C 177.011719 2.046875 176.597656 2.148438 176.183594 2.148438 C 176.082031 2.148438 175.875 2.148438 175.769531 2.148438 L 174.941406 3.394531 L 174.628906 3.707031 C 174.421875 3.707031 174.421875 3.8125 174.320312 3.8125 C 174.214844 3.8125 174.214844 3.707031 174.007812 3.394531 C 173.695312 4.121094 172.867188 4.539062 172.867188 4.539062 C 172.765625 4.539062 172.558594 4.433594 172.558594 3.914062 C 171.105469 5.265625 171.417969 5.160156 170.796875 5.160156 C 168.308594 4.539062 164.785156 3.914062 161.261719 3.914062 C 158.566406 3.914062 155.871094 4.226562 153.695312 5.160156 C 153.695312 5.160156 151 6.097656 150.273438 8.070312 C 150.273438 8.070312 145.402344 8.070312 142.605469 11.910156 C 142.605469 11.910156 140.949219 14.300781 142.085938 17.519531 L 142.605469 18.246094 L 142.917969 18.039062 C 142.710938 17.414062 142.8125 17 143.332031 16.480469 C 143.332031 16.480469 143.953125 15.960938 145.09375 15.960938 C 145.402344 15.960938 145.714844 15.960938 146.027344 16.066406 C 146.75 16.167969 147.476562 16.273438 148.097656 16.273438 C 148.925781 16.273438 149.652344 16.167969 150.066406 16.167969 C 150.066406 16.167969 150.378906 16.066406 150.792969 16.066406 C 151.621094 16.066406 153.175781 16.375 154.628906 17.933594 C 157.945312 21.570312 159.601562 22.296875 160.742188 22.710938 C 161.261719 22.917969 161.882812 23.542969 161.777344 25.308594 C 161.777344 25.308594 161.675781 25.308594 161.675781 25.308594 C 161.46875 25.308594 161.261719 25.515625 161.054688 26.136719 C 160.535156 27.488281 157.320312 31.433594 155.558594 32.679688 C 155.558594 32.679688 151.105469 34.445312 152.660156 34.550781 C 153.695312 34.550781 153.902344 35.378906 153.902344 35.378906 C 153.695312 35.378906 152.96875 35.484375 151.414062 36.417969 C 149.03125 37.976562 148.410156 39.429688 148.71875 39.429688 C 149.34375 39.222656 150.066406 39.222656 150.6875 39.222656 C 151.519531 39.222656 152.035156 39.429688 151.519531 39.742188 C 150.066406 40.78125 148.203125 41.609375 147.582031 43.6875 C 147.683594 43.6875 147.683594 43.6875 147.789062 43.6875 C 148.511719 43.6875 149.238281 44.519531 149.34375 44.621094 C 147.269531 46.90625 147.269531 47.738281 146.75 48.777344 C 146.234375 49.710938 148.617188 51.058594 148.617188 51.058594 C 147.683594 52.929688 146.855469 54.488281 145.609375 55.421875 C 145.714844 55.527344 145.820312 55.628906 146.027344 55.628906 C 146.855469 55.628906 148.304688 55.007812 148.304688 55.007812 C 148.304688 55.007812 147.371094 56.460938 146.957031 58.226562 C 146.75 59.054688 146.75 59.265625 146.957031 59.574219 C 146.957031 59.574219 146.957031 59.574219 147.0625 59.574219 C 147.269531 59.574219 147.582031 59.574219 148.203125 59.265625 C 147.789062 60.09375 147.683594 60.511719 147.890625 60.925781 L 148.617188 60.820312 C 148.410156 61.757812 148.304688 62.484375 148.511719 63.210938 L 149.550781 62.484375 C 149.859375 63.3125 149.136719 65.910156 149.136719 65.910156 C 150.585938 65.910156 149.03125 69.234375 149.652344 70.269531 C 149.757812 70.269531 150.585938 70.167969 151.207031 69.441406 C 151.414062 69.441406 150.378906 72.867188 150.378906 73.492188 L 151.3125 73.179688 C 151.105469 75.046875 151.519531 76.503906 150.898438 79.097656 L 150.378906 81.070312 L 151.414062 81.488281 C 150.898438 82.421875 151.828125 84.394531 151.828125 84.394531 L 151.621094 85.433594 C 151.3125 86.160156 151.105469 87.507812 151.414062 87.507812 C 151.414062 87.507812 151.519531 87.507812 151.519531 87.40625 L 152.554688 86.992188 C 152.554688 88.339844 152.867188 89.898438 152.140625 91.351562 C 152.554688 91.351562 152.867188 91.351562 153.074219 91.351562 C 153.796875 91.351562 153.695312 91.558594 153.695312 91.871094 C 153.488281 93.011719 153.28125 93.53125 153.074219 94.46875 C 153.175781 94.363281 153.28125 94.363281 153.488281 94.363281 C 153.902344 94.363281 154.316406 94.675781 154.214844 95.195312 C 153.902344 96.335938 153.902344 97.789062 154.109375 98.101562 C 154.835938 98.101562 155.042969 97.582031 155.042969 97.582031 C 155.042969 97.582031 154.835938 98.828125 154.9375 100.28125 C 154.730469 100.800781 154.835938 101.632812 154.421875 101.734375 L 155.769531 101.527344 L 155.769531 102.773438 C 153.902344 103.398438 152.96875 104.851562 151.621094 104.851562 C 151.414062 104.851562 151.207031 104.851562 151 104.746094 C 150.066406 104.539062 149.445312 104.539062 149.136719 104.539062 C 148.824219 104.539062 148.511719 104.539062 148.203125 104.644531 C 147.476562 104.851562 146.75 105.265625 146.75 105.265625 C 146.75 105.265625 146.128906 105.371094 145.402344 105.890625 C 144.679688 106.410156 143.746094 108.382812 143.746094 109.003906 C 143.746094 109.628906 143.847656 109.941406 144.054688 109.941406 C 144.265625 109.941406 144.78125 108.175781 146.128906 107.964844 C 146.335938 107.964844 146.542969 107.863281 146.648438 107.863281 C 146.957031 107.863281 146.855469 107.964844 147.0625 108.175781 C 147.269531 108.382812 148.203125 108.796875 149.136719 108.796875 C 149.445312 108.796875 149.652344 108.796875 149.964844 108.695312 C 150.792969 108.382812 153.175781 108.070312 154.003906 108.070312 C 154.003906 108.070312 154.109375 108.070312 154.109375 108.070312 L 152.660156 109.316406 C 151.828125 109.523438 150.273438 109.523438 149.34375 112.121094 C 148.71875 112.640625 148.304688 114.714844 148.203125 115.234375 L 148.511719 116.273438 C 148.71875 116.273438 149.03125 114.820312 149.757812 114.507812 C 150.378906 114.199219 152.347656 114.714844 154.109375 113.261719 C 155.769531 111.914062 155.351562 111.496094 157.425781 109.835938 C 158.253906 109.210938 159.5 107.34375 160.847656 107.34375 C 161.054688 107.34375 161.261719 107.34375 161.46875 107.550781 C 163.023438 108.277344 164.472656 108.902344 164.265625 110.25 C 163.953125 110.769531 164.058594 111.1875 164.058594 111.808594 C 163.953125 112.535156 163.539062 113.574219 163.746094 113.679688 C 163.746094 113.679688 163.851562 113.679688 163.851562 113.679688 C 164.371094 113.679688 165.820312 112.328125 166.132812 111.808594 C 166.546875 111.1875 166.960938 109.730469 166.648438 109.210938 C 166.960938 105.371094 165.199219 104.125 165.199219 104.125 L 165.613281 103.398438 L 164.472656 103.085938 C 165.09375 102.152344 165.40625 100.179688 165.71875 100.179688 C 166.027344 100.28125 166.855469 101.320312 167.167969 101.320312 C 167.269531 101.320312 167.269531 101.21875 167.167969 100.800781 C 166.648438 99.140625 166.546875 98.308594 166.546875 97.789062 L 166.546875 97.582031 L 167.167969 97.476562 C 167.6875 97.789062 168.101562 98.828125 168.203125 98.828125 C 168.308594 98.828125 168.308594 98.515625 168.308594 97.582031 C 168.203125 94.984375 167.269531 92.078125 167.269531 92.078125 C 167.269531 92.078125 167.894531 92.597656 168.617188 92.703125 C 168.929688 91.246094 167.6875 88.652344 167.6875 88.652344 C 167.6875 88.652344 168.308594 89.484375 168.617188 89.484375 C 168.929688 89.484375 168.929688 88.859375 168.410156 86.78125 C 168.203125 86.160156 168.722656 85.328125 168.308594 84.496094 C 168.308594 84.496094 168.308594 84.496094 168.203125 84.496094 C 168.101562 84.496094 167.894531 84.1875 168.410156 81.902344 C 169.136719 82.523438 169.863281 83.042969 170.277344 83.25 C 170.691406 83.460938 171.210938 83.5625 171.625 83.5625 C 172.140625 83.5625 172.558594 83.460938 172.867188 83.460938 C 173.695312 83.769531 175.042969 84.1875 175.5625 84.1875 C 175.5625 84.1875 175.667969 84.1875 175.667969 84.1875 L 178.464844 84.1875 C 178.566406 84.1875 173.902344 89.691406 181.46875 99.035156 C 184.164062 102.359375 190.175781 103.8125 190.589844 104.4375 C 189.242188 104.125 186.445312 103.917969 184.269531 103.917969 C 182.921875 103.917969 181.675781 104.019531 181.160156 104.125 C 179.707031 104.019531 178.464844 103.917969 177.429688 103.917969 C 174.007812 103.917969 173.179688 104.746094 172.039062 107.03125 C 171.625 107.238281 171.105469 107.65625 171.105469 108.589844 L 171.003906 110.769531 L 172.140625 109.730469 L 173.179688 110.5625 L 173.59375 112.222656 L 174.214844 111.394531 L 174.421875 111.496094 C 175.25 111.703125 175.457031 112.015625 175.769531 112.433594 L 176.183594 113.367188 L 176.703125 112.953125 C 177.84375 113.160156 178.878906 113.261719 179.914062 113.261719 C 182.507812 113.261719 184.683594 112.742188 187.792969 112.640625 C 189.035156 112.640625 190.382812 112.640625 191.523438 112.640625 C 193.386719 112.640625 195.046875 112.640625 195.566406 112.847656 C 195.773438 112.953125 196.082031 112.953125 196.394531 112.953125 C 198.570312 112.953125 202.40625 111.496094 202.40625 111.496094 C 203.027344 111.496094 205.617188 112.015625 209.039062 112.015625 C 210.59375 112.015625 212.355469 111.914062 214.21875 111.601562 C 217.226562 111.1875 219.503906 110.976562 221.472656 109.730469 C 222.097656 109.316406 224.066406 108.382812 224.480469 107.757812 C 227.175781 106.097656 230.386719 102.878906 231.320312 99.972656 C 233.289062 95.195312 234.117188 92.078125 234.222656 88.546875 C 234.222656 86.886719 234.117188 85.015625 232.875 81.175781 C 230.28125 73.28125 230.90625 71 231.734375 69.234375 C 232.148438 68.714844 232.769531 67.570312 234.222656 66.742188 C 234.945312 67.570312 235.570312 67.050781 236.398438 67.46875 C 237.125 67.777344 237.746094 68.609375 238.367188 69.023438 C 239.714844 70.0625 240.75 70.269531 242.203125 70.269531 C 242.617188 70.269531 242.925781 70.375 243.339844 70.375 C 243.546875 70.375 243.757812 70.375 244.066406 70.269531 L 244.480469 69.441406 C 245 69.855469 245.621094 70.375 246.242188 70.375 C 246.347656 70.375 246.347656 70.375 246.449219 70.375 L 246.140625 69.023438 C 246.761719 69.023438 247.488281 69.855469 248.003906 70.0625 L 248.730469 69.960938 L 249.042969 69.234375 L 249.042969 69.128906 L 250.179688 69.335938 L 250.597656 69.023438 C 250.699219 69.023438 250.804688 69.023438 250.90625 69.023438 C 251.320312 69.023438 251.839844 68.921875 252.460938 68.507812 C 251.425781 67.15625 250.390625 67.15625 249.25 66.53125 L 250.492188 65.390625 L 249.871094 65.183594 L 248.9375 64.871094 L 247.488281 64.039062 L 246.761719 63.625 L 246.65625 63.417969 C 245.933594 62.277344 245.621094 61.964844 244.894531 61.757812 L 242.410156 60.820312 C 241.269531 60.511719 239.816406 60.40625 238.679688 60.40625 C 238.160156 60.40625 237.640625 60.40625 237.332031 60.511719 C 236.085938 60.71875 233.597656 62.378906 232.253906 63.3125 C 230.492188 64.457031 230.59375 64.664062 230.492188 64.769531 C 227.589844 66.53125 225.621094 72.761719 227.277344 80.65625 C 228.105469 84.394531 227.796875 83.042969 228.3125 85.226562 C 230.28125 94.570312 223.132812 100.59375 220.023438 102.773438 L 220.125 102.566406 C 221.164062 101.007812 221.886719 99.347656 222.40625 97.582031 C 223.441406 94.257812 224.480469 88.753906 223.132812 85.535156 C 222.820312 83.355469 221.472656 80.03125 220.230469 78.476562 C 220.542969 78.683594 220.75 78.683594 220.957031 78.683594 C 221.058594 78.683594 221.265625 78.683594 221.472656 78.683594 C 219.710938 77.539062 217.328125 72.867188 216.601562 72.035156 L 217.328125 71.726562 C 216.085938 70.582031 212.871094 67.363281 212.871094 67.363281 C 212.871094 67.363281 213.078125 67.46875 213.390625 67.46875 C 213.699219 67.46875 214.117188 67.46875 214.324219 67.261719 C 214.632812 67.050781 210.695312 65.390625 209.453125 63.417969 C 208.832031 62.378906 209.554688 61.859375 209.761719 61.859375 C 210.902344 62.484375 212.042969 62.691406 212.871094 62.691406 C 213.804688 62.691406 214.53125 62.484375 215.152344 62.277344 C 214.632812 60.925781 212.457031 59.472656 212.5625 59.472656 C 213.597656 59.886719 214.945312 59.992188 214.945312 59.992188 C 215.773438 60.199219 216.394531 60.300781 216.808594 60.300781 C 217.328125 60.300781 217.742188 60.199219 218.363281 59.886719 C 217.949219 59.054688 215.359375 57.808594 214.839844 56.980469 C 216.292969 57.394531 217.226562 57.808594 218.363281 57.808594 C 218.78125 57.808594 219.089844 57.808594 219.503906 57.601562 L 219.089844 56.148438 C 219.917969 56.460938 221.265625 56.875 222.304688 56.875 C 222.925781 56.875 223.441406 56.773438 223.859375 56.355469 C 224.066406 56.148438 219.503906 52.722656 217.847656 49.296875 C 217.742188 49.085938 217.742188 49.085938 217.847656 49.085938 C 218.15625 49.085938 221.886719 53.242188 225.203125 53.761719 C 226.035156 53.136719 225.414062 51.683594 224.789062 50.851562 C 224.6875 50.75 224.6875 50.644531 224.789062 50.644531 C 225.308594 50.644531 228.210938 52.203125 228.210938 52.203125 C 228.210938 52.203125 228.210938 50.542969 226.964844 48.359375 C 227.382812 48.671875 230.28125 49.296875 231.835938 49.296875 C 232.253906 49.296875 232.460938 49.296875 232.667969 49.191406 C 233.390625 48.777344 231.628906 46.386719 231.628906 46.386719 C 231.628906 46.386719 234.945312 47.945312 235.777344 47.945312 C 236.605469 47.945312 236.5 47.425781 236.5 47.425781 C 236.292969 46.699219 236.292969 45.765625 235.570312 44.101562 C 235.050781 42.960938 231.527344 37.871094 232.253906 37.871094 C 232.5625 37.871094 233.496094 38.597656 235.464844 40.675781 C 236.292969 41.402344 239.09375 44.414062 240.128906 44.414062 C 241.0625 44.308594 239.195312 40.882812 239.195312 40.882812 C 239.195312 40.882812 241.476562 42.441406 243.546875 42.546875 C 244.378906 42.546875 243.238281 39.742188 242.617188 39.117188 C 241.269531 37.664062 240.855469 37.042969 238.261719 35.585938 C 238.054688 35.484375 238.054688 35.484375 238.160156 35.484375 C 238.679688 35.484375 244.066406 37.351562 245 37.871094 C 245.101562 37.976562 245.207031 37.976562 245.3125 37.976562 C 246.035156 37.976562 243.757812 34.964844 243.757812 34.964844 C 243.859375 34.964844 243.859375 34.964844 243.964844 34.964844 C 246.140625 34.964844 251.113281 33.925781 251.425781 33.304688 C 251.734375 32.679688 249.558594 31.433594 249.558594 31.433594 L 250.492188 31.328125 C 250.492188 31.328125 250.90625 31.328125 251.527344 31.328125 C 252.875 31.328125 255.15625 31.226562 255.261719 30.5 L 244.378906 25.515625 C 252.359375 26.242188 255.984375 27.488281 259.820312 27.488281 C 260.027344 27.488281 260.234375 27.488281 260.441406 27.488281 C 263.445312 27.382812 264.171875 26.242188 264.171875 26.242188 C 263.550781 24.789062 257.023438 23.230469 257.023438 23.230469 L 260.339844 23.4375 C 260.441406 23.4375 260.546875 23.4375 260.648438 23.4375 C 266.039062 23.4375 269.871094 20.632812 269.871094 19.804688 C 269.871094 18.972656 266.972656 18.140625 266.972656 18.140625 C 266.660156 17.726562 271.011719 17.832031 271.84375 15.753906 C 276.089844 13.46875 275.882812 12.117188 275.882812 12.117188 C 275.675781 11.910156 275.367188 11.910156 274.949219 11.910156 C 274.226562 11.910156 273.5 12.117188 273.5 12.117188 C 273.5 12.117188 270.289062 12.949219 266.246094 13.574219 C 265.3125 13.675781 264.484375 13.78125 263.757812 13.78125 C 261.683594 13.78125 261.0625 13.261719 261.0625 13.261719 C 273.914062 11.601562 275.988281 8.691406 276.402344 7.132812 C 279.925781 4.332031 278.476562 1.941406 278.476562 1.941406 C 278.476562 1.941406 278.371094 1.941406 278.371094 1.941406 C 277.644531 1.941406 275.988281 5.472656 264.898438 8.070312 C 259.199219 9.417969 253.496094 10.664062 247.695312 10.664062 C 246.449219 10.664062 245.207031 10.5625 243.964844 10.457031 C 229.453125 8.691406 219.917969 7.445312 212.976562 7.445312 C 203.027344 7.445312 198.570312 10.042969 193.386719 18.765625 C 192.039062 22.085938 190.484375 24.683594 188.621094 26.96875 C 188 24.789062 186.652344 22.398438 185.304688 20.324219 L 185.925781 19.804688 C 184.890625 18.972656 184.890625 18.140625 184.0625 17.726562 C 184.578125 17.933594 185.304688 18.246094 185.617188 18.246094 C 185.824219 18.246094 185.925781 18.140625 185.925781 17.933594 L 183.644531 15.339844 C 183.644531 15.339844 184.371094 15.441406 185.097656 15.648438 C 184.0625 13.675781 183.957031 13.15625 183.957031 13.15625 L 185.097656 13.46875 L 183.851562 10.976562 C 184.371094 10.042969 182.507812 6.199219 182.402344 5.265625 C 182.195312 3.292969 181.574219 2.046875 179.914062 0.488281 C 179.707031 0.175781 179.605469 0.175781 179.5 0.175781 C 179.191406 0.175781 178.878906 0.382812 178.671875 0.59375 "/>
<path style=" stroke:none;fill-rule:nonzero;fill:rgb(0%,0%,0%);fill-opacity:1;" d="M 0 159.578125 L 0 150.542969 L 2.28125 150.542969 L 3.523438 157.292969 C 3.523438 157.292969 6.011719 158.125 7.359375 158.125 C 10.15625 158.125 12.230469 155.632812 12.230469 152.101562 L 12.230469 130.605469 L 6.632812 129.566406 L 6.632812 127.695312 L 22.488281 127.695312 L 22.488281 129.566406 L 16.789062 130.707031 L 16.789062 151.789062 C 16.789062 157.292969 12.023438 160.71875 7.460938 160.71875 C 4.457031 160.824219 1.867188 160.304688 0 159.578125 "/>
<path style=" stroke:none;fill-rule:nonzero;fill:rgb(0%,0%,0%);fill-opacity:1;" d="M 41.039062 160.71875 L 31.089844 130.1875 L 27.566406 129.359375 L 27.566406 127.488281 L 41.246094 127.488281 L 41.246094 129.253906 L 36.480469 130.398438 L 43.425781 154.175781 L 43.632812 154.175781 L 53.269531 127.488281 L 57.207031 127.488281 L 65.707031 154.28125 L 65.914062 154.28125 L 74.101562 130.292969 L 69.75 129.359375 L 69.75 127.488281 L 81.460938 127.488281 L 81.460938 129.253906 L 77.625 130.292969 L 65.914062 160.71875 L 63.117188 160.71875 L 54.304688 133.925781 L 53.890625 133.925781 L 43.941406 160.71875 Z M 41.039062 160.71875 "/>
<path style=" stroke:none;fill-rule:nonzero;fill:rgb(0%,0%,0%);fill-opacity:1;" d="M 132.34375 158.433594 L 137.113281 157.394531 L 135.144531 133.824219 L 134.9375 133.824219 L 124.78125 160.71875 L 121.980469 160.71875 L 112.136719 133.410156 L 111.929688 133.410156 L 109.855469 157.1875 L 114.726562 158.433594 L 114.726562 160.304688 L 101.359375 160.304688 L 101.359375 158.433594 L 106.4375 157.394531 L 109.128906 130.5 L 104.15625 129.359375 L 104.15625 127.386719 L 115.039062 127.386719 L 124.15625 154.175781 L 124.367188 154.175781 L 133.796875 127.386719 L 144.367188 127.386719 L 144.367188 129.253906 L 139.394531 130.5 L 142.085938 157.394531 L 147.269531 158.433594 L 147.269531 160.304688 L 132.34375 160.304688 Z M 132.34375 158.433594 "/>
<path style=" stroke:none;fill-rule:nonzero;fill:rgb(0%,0%,0%);fill-opacity:1;" d="M 164.785156 145.246094 L 173.695312 145.246094 L 169.863281 132.265625 L 169.550781 132.265625 Z M 173.59375 158.640625 L 177.429688 157.707031 L 174.527344 147.945312 L 163.746094 147.945312 L 160.222656 157.394531 L 164.679688 158.539062 L 164.679688 160.304688 L 152.453125 160.304688 L 152.453125 158.640625 L 156.597656 157.5 L 168.722656 127.488281 L 172.140625 127.488281 L 182.609375 157.707031 L 186.546875 158.640625 L 186.546875 160.40625 L 173.386719 160.40625 L 173.386719 158.640625 Z M 173.59375 158.640625 "/>
<path style=" stroke:none;fill-rule:nonzero;fill:rgb(0%,0%,0%);fill-opacity:1;" d="M 203.234375 130.1875 L 203.234375 142.859375 L 205.929688 142.859375 C 211.007812 142.652344 214.945312 141.09375 214.945312 136.730469 C 214.945312 132.371094 212.042969 130.1875 206.859375 130.085938 L 203.234375 130.085938 Z M 208.105469 145.351562 C 207.484375 145.453125 206.757812 145.453125 206.03125 145.453125 L 203.234375 145.453125 L 203.234375 157.394531 L 208.933594 158.433594 L 208.933594 160.304688 L 193.179688 160.304688 L 193.179688 158.433594 L 198.777344 157.292969 L 198.777344 130.398438 L 193.179688 129.359375 L 193.179688 127.488281 L 208.519531 127.488281 C 214.945312 127.488281 219.503906 130.398438 219.503906 136.523438 C 219.503906 140.574219 217.328125 143.378906 212.976562 144.625 L 220.75 156.980469 L 224.894531 158.539062 L 224.894531 160.304688 L 217.121094 160.304688 Z M 208.105469 145.351562 "/>
<path style=" stroke:none;fill-rule:nonzero;fill:rgb(0%,0%,0%);fill-opacity:1;" d="M 241.164062 130.1875 L 241.164062 142.859375 L 243.859375 142.859375 C 248.9375 142.652344 252.875 141.09375 252.875 136.730469 C 252.875 132.371094 249.972656 130.1875 244.792969 130.085938 L 241.164062 130.085938 Z M 245.933594 145.351562 C 245.3125 145.453125 244.585938 145.453125 243.859375 145.453125 L 241.0625 145.453125 L 241.0625 157.394531 L 246.761719 158.433594 L 246.761719 160.304688 L 231.007812 160.304688 L 231.007812 158.433594 L 236.605469 157.292969 L 236.605469 130.398438 L 231.007812 129.359375 L 231.007812 127.488281 L 246.347656 127.488281 C 252.773438 127.488281 257.332031 130.398438 257.332031 136.523438 C 257.332031 140.574219 255.15625 143.378906 250.804688 144.625 L 258.578125 156.980469 L 262.722656 158.539062 L 262.722656 160.304688 L 254.949219 160.304688 Z M 245.933594 145.351562 "/>
<path style=" stroke:none;fill-rule:nonzero;fill:rgb(0%,0%,0%);fill-opacity:1;" d="M 269.664062 158.433594 L 275.160156 157.292969 L 275.160156 130.398438 L 269.664062 129.359375 L 269.664062 127.386719 L 285.417969 127.386719 L 285.417969 129.253906 L 279.71875 130.398438 L 279.71875 157.292969 L 285.417969 158.433594 L 285.417969 160.304688 L 269.664062 160.304688 Z M 269.664062 158.433594 "/>
<path style=" stroke:none;fill-rule:nonzero;fill:rgb(0%,0%,0%);fill-opacity:1;" d="M 307.492188 129.253906 C 300.445312 129.253906 295.988281 134.964844 295.988281 143.585938 C 295.988281 151.683594 300.03125 158.332031 307.078125 158.332031 C 314.746094 158.332031 318.582031 151.476562 318.582031 143.6875 C 318.6875 135.382812 314.4375 129.253906 307.492188 129.253906 M 306.976562 160.71875 C 297.234375 160.71875 290.910156 154.28125 290.910156 144.726562 C 290.910156 134.34375 297.75 126.867188 307.804688 126.867188 C 317.648438 126.867188 323.765625 133.410156 323.765625 142.546875 C 323.765625 152.203125 317.441406 160.71875 306.976562 160.71875 "/>
<path style=" stroke:none;fill-rule:nonzero;fill:rgb(0%,0%,0%);fill-opacity:1;" d="M 334.75 158.433594 L 340.347656 157.292969 L 340.347656 130.085938 L 332.988281 130.085938 L 330.292969 136.835938 L 328.636719 136.835938 L 328.636719 127.386719 L 356.722656 127.386719 L 356.722656 136.835938 L 355.0625 136.835938 L 352.058594 130.085938 L 344.90625 130.085938 L 344.90625 157.292969 L 350.605469 158.433594 L 350.605469 160.304688 L 334.75 160.304688 Z M 334.75 158.433594 "/>
<path style=" stroke:none;fill-rule:nonzero;fill:rgb(0%,0%,0%);fill-opacity:1;" d="M 367.601562 158.433594 L 373.199219 157.292969 L 373.199219 130.085938 L 365.839844 130.085938 L 363.148438 136.835938 L 361.488281 136.835938 L 361.488281 127.386719 L 389.679688 127.386719 L 389.679688 136.835938 L 388.019531 136.835938 L 384.910156 130.085938 L 377.863281 130.085938 L 377.863281 157.292969 L 383.460938 158.433594 L 383.460938 160.304688 L 367.601562 160.304688 Z M 367.601562 158.433594 "/>
<path style=" stroke:none;fill-rule:nonzero;fill:rgb(0%,0%,0%);fill-opacity:1;" d="M 390.816406 155.839844 L 391.648438 155.839844 C 392.371094 155.839844 392.996094 155.839844 392.996094 155.007812 C 392.996094 154.28125 392.371094 154.175781 391.855469 154.175781 L 390.816406 154.175781 Z M 389.988281 153.554688 L 391.957031 153.554688 C 393.097656 153.554688 393.71875 154.074219 393.71875 155.007812 C 393.71875 155.941406 393.097656 156.359375 392.371094 156.359375 L 393.824219 158.640625 L 392.996094 158.640625 L 391.648438 156.460938 L 390.816406 156.460938 L 390.816406 158.640625 L 389.988281 158.640625 Z M 391.648438 159.886719 C 393.617188 159.886719 395.171875 158.226562 395.171875 156.148438 C 395.171875 154.074219 393.617188 152.410156 391.648438 152.410156 C 389.679688 152.410156 388.125 154.074219 388.125 156.148438 C 388.125 158.226562 389.679688 159.886719 391.648438 159.886719 M 391.648438 151.683594 C 394.03125 151.683594 396 153.554688 396 156.046875 C 396 158.539062 394.03125 160.511719 391.648438 160.511719 C 389.261719 160.511719 387.292969 158.640625 387.292969 156.046875 C 387.398438 153.554688 389.367188 151.683594 391.648438 151.683594 "/>
</g>
</svg>
